<svg id="visual" viewBox="0 0 1920 1080" width="1920" height="1080" xmlns="http://www.w3.org/2000/svg" xmlns:xlink="http://www.w3.org/1999/xlink" version="1.1"><path d="M0 120L175 77L349 131L524 120L698 109L873 77L1047 87L1222 131L1396 163L1571 120L1745 152L1920 87L1920 0L1745 0L1571 0L1396 0L1222 0L1047 0L873 0L698 0L524 0L349 0L175 0L0 0Z" fill="#00cc8e"></path><path d="M0 325L175 206L349 379L524 347L698 249L873 239L1047 336L1222 336L1396 390L1571 336L1745 411L1920 282L1920 85L1745 150L1571 118L1396 161L1222 129L1047 85L873 75L698 107L524 118L349 129L175 75L0 118Z" fill="#00b98a"></path><path d="M0 541L175 422L349 768L524 671L698 606L873 725L1047 681L1222 627L1396 735L1571 541L1745 573L1920 433L1920 280L1745 409L1571 334L1396 388L1222 334L1047 334L873 237L698 247L524 345L349 377L175 204L0 323Z" fill="#00a784"></path><path d="M0 627L175 519L349 962L524 822L698 746L873 897L1047 887L1222 735L1396 865L1571 627L1745 757L1920 671L1920 431L1745 571L1571 539L1396 733L1222 625L1047 679L873 723L698 604L524 669L349 766L175 420L0 539Z" fill="#00957c"></path><path d="M0 1081L175 1081L349 1081L524 1081L698 1081L873 1081L1047 1081L1222 1081L1396 1081L1571 1081L1745 1081L1920 1081L1920 669L1745 755L1571 625L1396 863L1222 733L1047 885L873 895L698 744L524 820L349 960L175 517L0 625Z" fill="#038373"></path></svg>